<?xml version="1.0" standalone="no"?>
<!DOCTYPE svg PUBLIC "-//W3C//DTD SVG 20010904//EN"
 "http://www.w3.org/TR/2001/REC-SVG-20010904/DTD/svg10.dtd">
<svg version="1.0" xmlns="http://www.w3.org/2000/svg"
 width="512.000000pt" height="512.000000pt" viewBox="0 0 512.000000 512.000000"
 preserveAspectRatio="xMidYMid meet">
<metadata>
Created by potrace 1.11, written by Peter Selinger 2001-2013
</metadata>
<g transform="translate(0.000000,512.000000) scale(0.100000,-0.100000)"
fill="#000000" stroke="none">
<path d="M393 5106 c-186 -45 -348 -215 -382 -400 -16 -85 -15 -4224 0 -4298
40 -192 212 -361 404 -398 44 -8 634 -10 2180 -8 l2120 3 58 22 c152 57 263
168 320 320 l22 58 3 2120 c2 1546 0 2136 -8 2180 -37 192 -206 364 -398 404
-81 17 -4248 14 -4319 -3z m481 -2189 l326 -549 -2 -364 -3 -364 -509 855
c-279 471 -505 859 -502 863 12 12 351 119 357 113 3 -3 153 -253 333 -554z
m1417 295 c-572 -965 -926 -1559 -933 -1566 -4 -6 -8 155 -8 356 l0 366 326
543 c179 299 330 549 335 556 7 8 57 -5 189 -48 l178 -60 -87 -147z m1479 88
l0 -180 -310 0 -310 0 0 -190 0 -190 310 0 310 0 -2 -187 -3 -188 -307 -3
-308 -2 0 -360 0 -360 -210 0 -210 0 0 920 0 920 520 0 520 0 0 -180z m990 68
l190 -112 0 -337 0 -337 -192 -111 -193 -111 -327 0 -328 0 0 190 0 190 310 0
310 0 0 190 0 190 -310 0 -310 0 0 180 0 180 330 0 329 0 191 -112z"/>
</g>
</svg>
